HIERARCHY
ROOT SpineBase
{
  OFFSET 0.000000 0.000000 0.000000
  CHANNELS 6 Xposition Yposition Zposition Zrotation Xrotation Yrotation
  JOINT SpineMid
  {
    OFFSET 0.000000 25.816235 0.000000
    CHANNELS 3 Zrotation Xrotation Yrotation
    JOINT SpineShoulder
    {
      OFFSET 1.355802 19.096233 -1.499794
      CHANNELS 3 Zrotation Xrotation Yrotation
      JOINT Neck
      {
        OFFSET 0.238681 6.260649 -0.970393
        CHANNELS 3 Zrotation Xrotation Yrotation
        JOINT Head
        {
          OFFSET 2.792254 10.169148 6.035471
          CHANNELS 3 Zrotation Xrotation Yrotation
          End Site
          {
            OFFSET 0 0 0
          }
        }
      }
      JOINT ShoulderLeft
      {
        OFFSET -3.326371 -3.390757 16.846673
        CHANNELS 3 Zrotation Xrotation Yrotation
        JOINT ElbowLeft
        {
          OFFSET -1.351566 -27.086439 1.180627
          CHANNELS 3 Zrotation Xrotation Yrotation
          JOINT WristLeft
          {
            OFFSET -8.542660 -18.810587 -6.161757
            CHANNELS 3 Zrotation Xrotation Yrotation
            JOINT HandLeft
            {
              OFFSET 0.126362 -2.394517 0.921821
              CHANNELS 3 Zrotation Xrotation Yrotation
              JOINT HandTipLeft
              {
                OFFSET 0.137016 -2.503232 -0.635086
                CHANNELS 3 Zrotation Xrotation Yrotation
                End Site
                {
                  OFFSET 0 0 0
                }
              }
              JOINT ThumbLeft
              {
                OFFSET 0.721969 0.355355 0.328702
                CHANNELS 3 Zrotation Xrotation Yrotation
                End Site
                {
                  OFFSET 0 0 0
                }
              }
            }
          }
        }
      }
      JOINT ShoulderRight
      {
        OFFSET 3.083323 -1.077726 -6.627932
        CHANNELS 3 Zrotation Xrotation Yrotation
        JOINT ElbowRight
        {
          OFFSET -12.025472 -24.033136 -1.088129
          CHANNELS 3 Zrotation Xrotation Yrotation
          JOINT WristRight
          {
            OFFSET -6.670728 -16.846692 8.813008
            CHANNELS 3 Zrotation Xrotation Yrotation
            JOINT HandRight
            {
              OFFSET -0.069527 -2.269925 5.754782
              CHANNELS 3 Zrotation Xrotation Yrotation
              JOINT HandTipRight
              {
                OFFSET 0.028108 -2.441205 1.291700
                CHANNELS 3 Zrotation Xrotation Yrotation
                End Site
                {
                  OFFSET 0 0 0
                }
              }
              JOINT ThumbRight
              {
                OFFSET 0.248240 -2.845218 -1.787547
                CHANNELS 3 Zrotation Xrotation Yrotation
                End Site
                {
                  OFFSET 0 0 0
                }
              }
            }
          }
        }
      }
    }
  }
  JOINT HipLeft
  {
    OFFSET -2.423001 0.677401 -2.736585
    CHANNELS 3 Zrotation Xrotation Yrotation
    JOINT KneeLeft
    {
      OFFSET 6.036794 -39.762722 2.765506
      CHANNELS 3 Zrotation Xrotation Yrotation
      JOINT AnkleLeft
      {
        OFFSET 4.870435 -27.892612 6.565258
        CHANNELS 3 Zrotation Xrotation Yrotation
        JOINT FootLeft
        {
          OFFSET -5.314023 -7.104816 2.309254
          CHANNELS 3 Zrotation Xrotation Yrotation
          End Site
          {
            OFFSET 0 0 0
          }
        }
      }
    }
  }
  JOINT HipRight
  {
    OFFSET 1.108053 0.752443 -3.153968
    CHANNELS 3 Zrotation Xrotation Yrotation
    JOINT KneeRight
    {
      OFFSET -2.062934 -35.416752 0.968863
      CHANNELS 3 Zrotation Xrotation Yrotation
      JOINT AnkleRight
      {
        OFFSET 4.574619 -33.079593 2.804965
        CHANNELS 3 Zrotation Xrotation Yrotation
        JOINT FootRight
        {
          OFFSET -5.610695 -4.450714 -0.934159
          CHANNELS 3 Zrotation Xrotation Yrotation
          End Site
          {
            OFFSET 0 0 0
          }
        }
      }
    }
  }
}
MOTION
Frames: 13
Frame Time: 0.033333
73.931504 78.907895 312.520947 1.476953 0.781298 11.729303 5.560679 2.281551 -11.645739 -1.581560 1.384867 0.218202 -2.062577 -2.585518 -3.042670 0.000000 0.000000 0.000000 -52.453736 14.959066 0.202929 140.542869 -76.446358 140.314931 -52.678515 25.677612 -20.240312 19.728973 -16.399228 21.435862 0.000000 0.000000 0.000000 0.000000 0.000000 0.000000 -12.777963 -12.171101 1.684781 -42.238631 -33.366624 -20.504149 11.547554 49.787026 -57.126781 48.472686 -24.332245 52.363615 0.000000 0.000000 0.000000 0.000000 0.000000 0.000000 7.958913 -12.475353 -11.341497 -20.312338 20.139816 3.969262 1.054974 6.235496 -14.644241 0.000000 0.000000 0.000000 -0.503342 -2.152414 -11.598558 -4.535931 3.567991 0.062672 52.721718 -16.520104 38.725667 0.000000 0.000000 0.000000
73.775841 78.902191 312.616079 1.311520 0.655784 10.324401 5.239471 2.316881 -10.246607 -1.705337 1.333451 0.168223 -1.172056 -1.872382 -3.250550 0.000000 0.000000 0.000000 -51.097146 12.821367 -0.399094 121.625779 -77.503148 120.448642 -40.159281 36.293615 -20.167852 15.565710 -33.308420 14.783731 0.000000 0.000000 0.000000 0.000000 0.000000 0.000000 -12.218492 -11.878660 1.838238 -44.100161 -32.204579 -21.617929 23.853434 59.844821 -60.197298 52.450664 -35.820284 56.317830 0.000000 0.000000 0.000000 0.000000 0.000000 0.000000 8.729092 -12.110089 -9.868709 -20.089717 19.895407 3.870164 1.417651 6.493441 -14.616106 0.000000 0.000000 0.000000 -0.308572 -1.932850 -10.201579 -4.284292 3.430311 0.069090 60.233818 -15.249529 42.891644 0.000000 0.000000 0.000000
73.620307 78.806606 312.690112 1.135954 0.660864 9.668565 5.042478 2.271974 -9.594936 -1.723101 1.415642 0.135322 -0.259220 -1.628326 -3.546506 0.000000 0.000000 0.000000 -49.489790 10.270593 -1.286843 105.260759 -78.767111 106.028392 -32.653897 43.801485 -21.286756 11.649434 -44.568037 11.971929 0.000000 0.000000 0.000000 0.000000 0.000000 0.000000 -11.869934 -11.852948 1.913127 -43.621722 -31.628230 -21.342550 33.248284 67.668590 -69.286582 57.594147 -40.514405 61.893791 0.000000 0.000000 0.000000 0.000000 0.000000 0.000000 9.341635 -11.925422 -9.132980 -19.061698 19.080785 3.595846 0.860577 8.777905 -15.882762 0.000000 0.000000 0.000000 -0.358058 -1.859566 -9.560607 -3.773208 3.411289 0.092607 62.123732 -13.762022 37.018573 0.000000 0.000000 0.000000
73.468886 78.613675 312.744543 1.146570 0.764490 10.973411 5.048989 2.089126 -10.892095 -1.553525 1.624522 0.148955 -0.509876 -2.001858 -3.469051 0.000000 0.000000 0.000000 -48.776884 8.051478 -2.216279 88.301478 -77.698984 88.626498 -35.676633 43.050600 -19.147546 13.496445 -43.891080 11.779828 0.000000 0.000000 0.000000 0.000000 0.000000 0.000000 -12.034618 -12.081772 1.849723 -39.833865 -31.849401 -19.116657 24.495461 65.671717 -69.179548 61.486268 -40.039482 63.551920 0.000000 0.000000 0.000000 0.000000 0.000000 0.000000 9.229527 -12.050674 -10.387188 -19.034868 19.069313 3.558893 2.961247 8.334592 -15.220885 0.000000 0.000000 0.000000 -0.652118 -1.912454 -10.877861 -3.192477 3.471459 0.121045 53.822293 -13.988878 28.986035 0.000000 0.000000 0.000000
73.300723 78.377302 312.766482 1.208477 0.936336 13.117201 5.178193 1.871153 -13.026308 -1.397343 1.867256 0.168538 -1.011838 -2.686873 -3.302763 0.000000 0.000000 0.000000 -49.160885 6.867855 -2.875674 83.166279 -77.898402 84.205897 -37.231591 40.462689 -20.025449 15.912922 -37.768119 13.409058 0.000000 0.000000 0.000000 0.000000 0.000000 0.000000 -12.335602 -12.464098 1.736489 -41.125628 -32.045382 -19.870995 20.211393 63.286145 -67.260205 63.214205 -38.961383 63.100533 0.000000 0.000000 0.000000 0.000000 0.000000 0.000000 8.759602 -12.383869 -12.506365 -19.903440 19.796261 3.743062 5.320447 6.030850 -13.568313 0.000000 0.000000 0.000000 -0.976639 -2.085525 -13.028309 -2.788224 3.619431 0.144499 39.351938 -9.927992 9.792488 0.000000 0.000000 0.000000
73.158967 78.278213 312.781989 1.326770 1.091249 14.407910 5.340916 1.698049 -14.299151 -1.299699 1.938789 0.198006 -1.519289 -3.111033 -3.218847 0.000000 0.000000 0.000000 -50.596855 6.529541 -3.201934 82.254623 -79.675758 85.120881 -27.088708 34.575984 -30.524650 11.194460 -28.434627 16.550219 0.000000 0.000000 0.000000 0.000000 0.000000 0.000000 -12.695354 -12.644629 1.635555 -44.954564 -30.225227 -22.107550 15.990386 53.842780 -59.786823 60.000116 -37.683789 57.679206 0.000000 0.000000 0.000000 0.000000 0.000000 0.000000 8.135126 -12.613136 -13.835735 -21.620870 21.348969 4.229904 9.636991 1.771718 -10.154146 0.000000 0.000000 0.000000 -1.276480 -2.060858 -14.335872 -2.242716 3.388346 0.145341 19.492122 1.294934 -10.073995 0.000000 0.000000 0.000000
73.027827 78.269240 312.797127 1.404414 1.239175 14.969926 5.419546 1.634374 -14.856898 -1.433297 1.972947 0.183516 -1.270099 -3.571627 -3.264920 0.000000 0.000000 0.000000 -53.235072 8.633908 -2.585924 111.815380 -82.448943 115.969941 -25.164568 27.754201 -37.560953 7.252221 -14.505929 23.305579 0.000000 0.000000 0.000000 0.000000 0.000000 0.000000 -12.708943 -12.829434 1.606956 -50.484748 -26.938794 -25.153519 19.652846 36.290659 -48.699664 43.821407 -37.325781 43.260703 0.000000 0.000000 0.000000 0.000000 0.000000 0.000000 7.743255 -12.675664 -14.418658 -23.115319 22.432120 4.612377 12.531511 -1.947410 -7.044485 0.000000 0.000000 0.000000 -1.360558 -2.005610 -14.911664 -1.958845 3.276335 0.172393 3.166790 10.912007 -17.125384 0.000000 0.000000 0.000000
72.916697 78.355661 312.829140 1.511600 1.341424 13.363266 5.375267 1.791788 -13.257229 -1.576101 1.973351 0.166975 -1.071783 -4.024746 -3.236989 0.000000 0.000000 0.000000 -55.758047 11.204316 -1.617256 158.209885 -81.724011 164.179900 -26.955265 19.211791 -45.001164 4.153934 5.724879 28.970528 0.000000 0.000000 0.000000 0.000000 0.000000 0.000000 -12.679402 -12.940362 1.598300 -56.473940 -22.446454 -28.107851 28.337841 23.312882 -40.731493 27.135893 -38.406476 30.282333 0.000000 0.000000 0.000000 0.000000 0.000000 0.000000 8.020883 -12.473894 -12.766880 -24.320879 23.006916 4.846525 13.663958 -4.694747 -4.929240 0.000000 0.000000 0.000000 -1.574343 -1.798152 -13.335032 -1.480908 2.883313 0.181776 -2.314922 22.908027 -27.899685 0.000000 0.000000 0.000000
72.798967 78.420547 312.852080 1.545487 1.453366 11.298912 5.306936 1.979279 -11.203443 -1.714269 1.994422 0.144811 -0.997385 -4.449918 -3.106217 0.000000 0.000000 0.000000 -56.245042 9.147200 -2.545180 167.474794 -82.231325 176.009979 -29.933602 18.803629 -47.019088 3.139899 17.474680 34.125171 0.000000 0.000000 0.000000 0.000000 0.000000 0.000000 -12.580857 -13.074348 1.601794 -61.903634 -17.388443 -30.363350 40.124145 22.626832 -33.882627 17.840987 -46.841398 22.100146 0.000000 0.000000 0.000000 0.000000 0.000000 0.000000 8.832986 -12.441704 -10.579573 -25.924595 23.690101 5.165430 15.026058 -7.009448 -3.037785 0.000000 0.000000 0.000000 -1.800611 -1.121831 -11.336146 -0.766107 1.856067 0.204618 -4.864593 24.502480 -27.911267 0.000000 0.000000 0.000000
72.671690 78.446577 312.885824 1.517068 1.525786 9.179482 5.283832 2.216581 -9.098835 -1.826872 2.015416 0.126278 -1.320401 -4.934756 -2.769319 0.000000 0.000000 0.000000 -55.127319 3.403450 -4.946747 123.085750 -85.046778 132.456447 -28.795443 27.386631 -41.817329 9.262643 3.433319 28.543450 0.000000 0.000000 0.000000 0.000000 0.000000 0.000000 -12.495377 -13.224614 1.601329 -66.228734 -12.550613 -31.771328 51.503134 35.464633 -29.623792 18.057131 -66.532561 19.096798 0.000000 0.000000 0.000000 0.000000 0.000000 0.000000 9.963043 -12.321489 -8.293941 -28.106692 24.426754 5.544748 16.612282 -10.016770 -0.598757 0.000000 0.000000 0.000000 -2.638929 -1.549173 -9.239096 0.395612 1.916567 0.172938 -2.601792 26.615695 -31.386626 0.000000 0.000000 0.000000
72.551280 78.446057 312.950969 1.384832 1.524107 7.887109 5.242539 2.353592 -7.818035 -1.935970 1.987636 0.101710 -1.280765 -4.963096 -2.610879 0.000000 0.000000 0.000000 -52.269762 -5.539606 -8.073444 52.596924 -78.691957 62.380133 -12.426740 43.174967 -40.357364 4.287730 -26.518325 23.502211 0.000000 0.000000 0.000000 0.000000 0.000000 0.000000 -12.256538 -13.228391 1.652739 -69.280748 -8.674972 -32.503099 68.703831 57.554692 -20.798646 -95.521452 -77.393979 -96.094382 0.000000 0.000000 0.000000 0.000000 0.000000 0.000000 11.112652 -12.166740 -6.836447 -29.071525 24.553991 5.608891 16.258169 -10.795766 -0.364678 0.000000 0.000000 0.000000 -3.246511 -1.436867 -7.988233 1.410288 1.611275 0.179513 4.940843 27.802143 -38.143807 0.000000 0.000000 0.000000
72.462717 78.382634 313.027196 1.210283 1.469527 7.153618 5.189448 2.404822 -7.090819 -1.974902 1.926518 0.086451 -1.121663 -4.619598 -2.589713 0.000000 0.000000 0.000000 -47.897330 -16.370987 -10.913517 36.974296 -64.737423 45.772916 -23.846472 47.084081 -28.296928 9.021159 -29.426345 20.685515 0.000000 0.000000 0.000000 0.000000 0.000000 0.000000 -12.007243 -13.106625 1.721395 -71.041823 -6.355777 -32.827883 82.989238 71.872382 -11.114297 -104.909889 -52.095231 -104.980473 0.000000 0.000000 0.000000 0.000000 0.000000 0.000000 12.031745 -11.976394 -5.984818 -28.544013 23.878167 5.283027 14.112015 -8.223570 -2.876954 0.000000 0.000000 0.000000 -3.810547 -1.173233 -7.293674 2.450195 1.258852 0.204702 20.225848 25.066958 -48.429182 0.000000 0.000000 0.000000
72.402789 78.190255 313.085877 0.942572 1.362423 7.308073 5.099875 2.339155 -7.250101 -1.978194 1.851929 0.066970 -0.013481 -3.797958 -3.072613 0.000000 0.000000 0.000000 -42.981916 -27.070988 -12.709944 28.476488 -51.627410 39.169516 -34.917573 52.171643 -16.311638 14.699933 -36.601406 17.002365 0.000000 0.000000 0.000000 0.000000 0.000000 0.000000 -11.629247 -12.881542 1.831002 -71.338331 -7.321183 -33.151382 104.814399 82.337179 -35.619300 -101.544045 -48.563682 -105.753478 0.000000 0.000000 0.000000 0.000000 0.000000 0.000000 12.869058 -11.958164 -6.030385 -26.876117 22.562895 4.711357 10.174175 -2.943786 -7.549283 0.000000 0.000000 0.000000 -4.322868 -1.048101 -7.469456 3.357948 1.333578 0.230446 33.022655 22.062059 -59.162070 0.000000 0.000000 0.000000
